<svg height="38pt" viewBox="0 0 184 38" width="184pt" xmlns="http://www.w3.org/2000/svg"><path d="m28.582031 1.789062c.53125-.792968.042969-1.789062-.871093-1.789062h-14.75c-3.101563 0-5.570313.828125-7.40625 2.484375-1.820313 1.640625-2.871094 4-3.152344 7.082031l-.703125 8.066406c-.257813 3.082032.382812 5.445313 1.914062 7.089844 1.546875 1.652344 3.871094 2.480469 6.976563 2.480469h3.367187v-.023437c.664063-.089844 1.027344-.496094 1.089844-1.21875l.347656-3.957032c.035157-.335937-.074219-.671875-.300781-.921875-.226562-.246093-.546875-.386719-.882812-.378906h-1.875c-1.21875 0-2.070313-.265625-2.554688-.800781-.484375-.53125-.671875-1.425782-.5625-2.683594l.628906-7.230469c.109375-1.261719.453125-2.15625 1.03125-2.6875s1.476563-.800781 2.691406-.800781h9.960938c1.171875 0 2.3125-.625 2.992188-1.640625zm0 0" fill="#00b073"/><path d="m.242188 36.210938c-.53125.792968-.050782 1.789062.867187 1.789062h14.964844c3.101562 0 5.574219-.828125 7.40625-2.484375 1.820312-1.640625 2.871093-4.003906 3.152343-7.082031l.707032-8.066406c.257812-3.082032-.382813-5.445313-1.914063-7.089844-1.546875-1.660156-3.871093-2.488282-6.980469-2.484375h-3.367187v.023437c-.664063.089844-1.027344.5-1.09375 1.21875l-.34375 3.960938c-.035156.332031.074219.667968.300781.917968.226563.246094.546875.386719.882813.378907h1.878906c1.214844 0 2.066406.265625 2.550781.800781.484375.53125.671875 1.425781.5625 2.6875l-.632812 7.230469c-.109375 1.261719-.449219 2.15625-1.027344 2.6875s-1.476562.796875-2.695312.800781h-10.167969c-1.207031.015625-2.328125.632812-2.996094 1.640625zm0 0" fill="#00b073"/><g fill="#091b2a"><path d="m50.992188 38h-19.273438c-.828125 0-1.203125-.414062-1.132812-1.242188l3.097656-35.515624c.074218-.828126.523437-1.242188 1.347656-1.242188h19.277344c.785156 0 1.140625.414062 1.070312 1.242188l-.351562 4.015624c-.070313.828126-.5 1.238282-1.285156 1.238282h-12.320313c-.472656 0-.726563.214844-.765625.648437l-.667969 7.679688c-.039062.433593.183594.648437.648438.648437h10.082031c.824219 0 1.199219.414063 1.128906 1.238282l-.351562 4.035156c-.070313.824218-.519532 1.238281-1.347656 1.238281h-10.078126c-.472656 0-.726562.21875-.765624.644531l-.714844 8.214844c-.039063.433594.179687.648438.652344.648438h12.316406c.785156 0 1.144531.414062 1.070312 1.238281l-.347656 4.019531c-.074219.828125-.503906 1.242188-1.289062 1.242188"/><path d="m71.785156 38h-6.425781c-3.105469 0-5.429687-.828125-6.976563-2.480469-1.542968-1.65625-2.179687-4.039062-1.910156-7.152343l1.636719-18.734376c.273437-3.113281 1.324219-5.496093 3.15625-7.152343 1.832031-1.652344 4.300781-2.480469 7.410156-2.480469h6.425781c3.0625 0 5.378907.835938 6.941407 2.511719s2.210937 4.046875 1.941406 7.121093l-.242187 2.777344c-.074219.867188-.550782 1.300782-1.410157 1.300782h-4.949219c-.828124 0-1.203124-.433594-1.125-1.300782l.210938-2.421875c.109375-1.261719-.078125-2.15625-.5625-2.691406-.484375-.53125-1.355469-.796875-2.609375-.796875h-4.011719c-1.21875 0-2.113281.265625-2.691406.796875-.578125.535156-.921875 1.429687-1.03125 2.691406l-1.570312 18.023438c-.113282 1.261719.074218 2.15625.558593 2.691406.484375.53125 1.335938.796875 2.554688.796875h4.007812c1.257813 0 2.175781-.265625 2.75-.796875.578125-.535156.917969-1.429687 1.027344-2.691406l.210937-2.421875c.078126-.867188.527344-1.300782 1.351563-1.300782h4.953125c.863281 0 1.257812.433594 1.183594 1.300782l-.242188 2.777344c-.269531 3.074218-1.332031 5.449218-3.183594 7.121093-1.855468 1.671875-4.316406 2.507813-7.382812 2.511719"/><path d="m99.175781 38h-4.953125c-.863281 0-1.261718-.414062-1.1875-1.242188l2.582032-29.605468c.039062-.429688-.160157-.648438-.589844-.648438h-6.722656c-.824219 0-1.203126-.410156-1.128907-1.238281l.351563-4.019531c.070312-.832032.519531-1.246094 1.34375-1.246094h22.28125c.828125 0 1.203125.414062 1.132812 1.242188l-.351562 4.015624c-.070313.828126-.519532 1.238282-1.347656 1.238282h-6.714844c-.46875 0-.726563.214844-.761719.648437l-2.585937 29.605469c-.070313.828125-.519532 1.242188-1.34375 1.242188"/><path d="m123.59375 1.242188-3.097656 35.515624c-.074219.828126-.523438 1.242188-1.347656 1.242188h-5.011719c-.824219 0-1.199219-.414062-1.128907-1.242188l3.097657-35.515624c.074219-.828126.523437-1.242188 1.347656-1.242188h5.011719c.824218 0 1.203125.414062 1.128906 1.242188"/><path d="m166.859375 31.5h4.1875c1.257813 0 2.171875-.265625 2.75-.796875.578125-.535156.921875-1.429687 1.03125-2.691406l1.574219-18.023438c.109375-1.261719-.078125-2.15625-.5625-2.691406-.484375-.53125-1.355469-.796875-2.613282-.796875h-4.183593c-1.257813 0-2.167969.265625-2.722657.796875-.554687.535156-.890624 1.429687-1 2.691406l-1.574218 18.023438c-.113282 1.261719.066406 2.15625.53125 2.691406.460937.53125 1.324218.796875 2.582031.796875m4.855469 6.5h-6.601563c-3.101562 0-5.425781-.828125-6.972656-2.480469-1.546875-1.65625-2.183594-4.039062-1.910156-7.152343l1.632812-18.734376c.273438-3.113281 1.324219-5.496093 3.160157-7.152343 1.832031-1.652344 4.304687-2.480469 7.410156-2.480469h6.605468c3.101563 0 5.425782.828125 6.972657 2.480469 1.546875 1.65625 2.183593 4.039062 1.910156 7.152343l-1.632813 18.734376c-.273437 3.113281-1.324218 5.496093-3.160156 7.152343-1.832031 1.652344-4.300781 2.480469-7.40625 2.480469"/><path d="m146.667969 12.707031h5.011719c.824218 0 1.273437-.433593 1.351562-1.300781l.152344-1.773438c.269531-3.074218-.371094-5.449218-1.914063-7.121093-1.542969-1.675781-3.847656-2.511719-6.914062-2.511719h-6.246094c-3.105469 0-5.574219.828125-7.410156 2.480469-1.832031 1.652343-2.886719 4.039062-3.15625 7.152343l-1.636719 18.734376c-.269531 3.109374.367188 5.496093 1.910156 7.148437 1.546875 1.65625 3.871094 2.484375 6.976563 2.484375h6.246093c3.066407 0 5.519532-.839844 7.355469-2.511719 1.832031-1.675781 2.886719-4.050781 3.152344-7.121093l.863281-9.867188c.078125-.90625-.332031-1.359375-1.238281-1.359375h-11.667969c-.921875 0-1.574218.996094-1.183594 1.789063l1.519532 3.070312c.503906 1.011719 1.535156 1.640625 2.710937 1.640625h1.277344c.429687 0 .625.214844.589844.644531l-.324219 3.722656c-.109375 1.261719-.445312 2.160157-1 2.691407-.558594.53125-1.464844.796875-2.722656.796875h-3.832032c-1.21875 0-2.070312-.265625-2.554687-.796875-.484375-.535157-.671875-1.429688-.558594-2.691407l1.570313-18.023437c.113281-1.261719.453125-2.15625 1.03125-2.6875.578125-.535156 1.476562-.800781 2.691406-.800781h3.832031c1.257813 0 2.117188.265625 2.585938.800781.464843.53125.640625 1.425781.53125 2.6875l-.125 1.417969c-.074219.867187.300781 1.300781 1.125 1.300781"/></g></svg>