<?xml version="1.0" encoding="UTF-8"?>
<!-- Generator: Adobe Illustrator 26.0.3, SVG Export Plug-In . SVG Version: 6.00 Build 0)  -->
<svg version="1.1" id="Layer_1" xmlns="http://www.w3.org/2000/svg" xmlns:xlink="http://www.w3.org/1999/xlink" x="0px" y="0px" viewBox="0 0 243.3 191" style="enable-background:new 0 0 243.3 191;" xml:space="preserve">
<style type="text/css">
	.st0{fill:#193C6B;}
	.st1{fill:#F6A318;}
</style>
<g>
	<path class="st0" d="M2,117.8V71h11.3v37h18.1v9.9L2,117.8L2,117.8z M68.8,101.8v2.6H44.9c0.1,0.9,0.4,1.7,0.9,2.5   c0.4,0.7,1,1.4,1.7,1.9c0.7,0.6,1.6,1,2.5,1.3s1.8,0.4,2.8,0.4c2.8,0,5.5-1.3,7.2-3.6l7.5,4.8c-1.6,2.2-3.6,4-6.1,5.2   c-2.8,1.3-5.8,1.9-8.9,1.9c-2.4,0-4.7-0.4-7-1.2c-2.1-0.7-4.1-1.9-5.8-3.3c-1.7-1.6-3-3.4-3.9-5.5c-1-2.3-1.5-4.9-1.4-7.4   c-0.1-2.5,0.4-5,1.4-7.3c0.8-2.1,2.1-4,3.8-5.5c1.6-1.5,3.5-2.7,5.6-3.5c2.2-0.9,4.6-1.3,7-1.3c2.3,0,4.5,0.4,6.7,1.2   c1.9,0.8,3.7,2,5.2,3.5c1.5,1.6,2.6,3.6,3.3,5.6C68.4,96.6,68.9,99.1,68.8,101.8L68.8,101.8z M58.8,97.7c0-1.6-0.6-3.2-1.6-4.5   c-1.3-1.4-3.1-2.1-4.9-1.9c-1,0-2,0.1-2.9,0.4c-0.8,0.3-1.6,0.7-2.3,1.3c-0.7,0.6-1.2,1.3-1.6,2c-0.4,0.8-0.6,1.6-0.7,2.5h14.1   L58.8,97.7L58.8,97.7z M86.2,93.1v12.6c-0.1,1.2,0.2,2.4,0.9,3.5c0.8,0.9,2,1.3,3.2,1.2c0.6,0,1.2,0,1.7-0.1s1-0.2,1.4-0.4l0.1,8   c-1,0.3-1.9,0.5-2.9,0.7c-1.2,0.2-2.3,0.3-3.5,0.3c-1.9,0.1-3.7-0.2-5.5-0.9c-1.4-0.5-2.6-1.2-3.6-2.3c-0.9-1.1-1.6-2.4-1.9-3.8   c-0.4-1.6-0.6-3.2-0.6-4.9V93.1h-5.4V85h5.2v-8.8H86v8.7h7.7V93L86.2,93.1z M103.9,70.1c-3.1-0.1-5.7,2.2-5.8,5.3c0,0,0,0,0,0.1   c-0.2,2.7,1.9,5.1,4.6,5.2c0.2,0,0.5,0,0.7,0c0.3,0,0.5,0,0.7-0.1c-0.6,2.3-2.6,4-4.9,4.4h-0.4v5.1h0.6c2.6-0.3,5-1.4,7-3.2   c2.6-2.6,3.9-6.2,3.8-9.9C110.1,73,107.5,70.1,103.9,70.1z M129,94.6c-0.9-0.9-1.9-1.6-3-2.2c-1.2-0.6-2.5-0.9-3.8-0.9   c-1,0-1.9,0.2-2.8,0.6c-0.8,0.3-1.4,1.1-1.3,2c0,0.9,0.6,1.7,1.5,2c1.5,0.6,3.1,1,4.6,1.3c1.3,0.3,2.5,0.6,3.7,1.2   c1.2,0.5,2.3,1.1,3.3,1.9s1.9,1.7,2.5,2.9c0.6,1.3,0.9,2.7,0.9,4.1c0.1,1.8-0.4,3.6-1.3,5.2c-0.8,1.4-1.9,2.6-3.3,3.5   c-1.4,0.9-2.9,1.5-4.5,1.9c-1.7,0.4-3.4,0.6-5.1,0.6c-2.7,0-5.3-0.4-7.8-1.2c-2.4-0.8-4.6-2-6.4-3.8l6.1-6.4   c1.1,1.1,2.3,1.9,3.6,2.6c1.4,0.7,2.9,1,4.5,1c0.9,0,1.8-0.2,2.6-0.6c0.8-0.4,1.4-1.2,1.3-2.2c0-1-0.7-1.9-1.6-2.3   c-1.6-0.6-3.2-1.1-4.9-1.4c-1.2-0.3-2.3-0.6-3.5-1c-1.1-0.4-2.1-1-3-1.7c-0.9-0.8-1.6-1.7-2.2-2.8c-0.6-1.2-0.9-2.6-0.9-3.9   c-0.1-1.8,0.4-3.5,1.3-5.1c0.8-1.3,1.9-2.5,3.2-3.3c1.3-0.9,2.8-1.6,4.4-1.9c1.6-0.4,3.2-0.6,4.8-0.6c2.5,0,4.9,0.4,7.2,1.2   c2.2,0.7,4.3,1.9,5.9,3.5L129,94.6z M2,172v-46.8h31.4v9.6H12.9v8.8h19.4v9H12.9v9.7h21.7v9.7H2z M63.2,172v-18   c0-0.9-0.1-1.7-0.3-2.6c-0.1-0.8-0.4-1.5-0.7-2.2c-0.3-0.6-0.8-1.1-1.5-1.4c-0.7-0.4-1.6-0.6-2.5-0.6s-1.8,0.2-2.6,0.6   c-0.7,0.4-1.3,0.9-1.8,1.6c-0.5,0.7-0.9,1.5-1.2,2.3s-0.4,1.7-0.4,2.6v17.9H41.3v-32.9h10.4v4.5h0.1c0.4-0.8,0.9-1.5,1.6-2   c0.6-0.7,1.4-1.3,2.2-1.7c0.9-0.5,1.8-0.9,2.7-1.2c1-0.3,2.1-0.4,3.2-0.4c1.9,0,3.9,0.4,5.6,1.2c1.4,0.7,2.7,1.8,3.7,3   c1,1.3,1.7,2.8,2,4.3c0.4,1.6,0.6,3.3,0.6,4.9v20.3H63.2V172z M102,149.7c-0.7-0.8-1.5-1.5-2.5-1.9s-2.1-0.7-3.2-0.7   s-2.1,0.3-3,0.7s-1.7,1.1-2.3,1.9c-0.6,0.8-1.1,1.7-1.6,2.6c-0.8,2.1-0.8,4.3,0,6.4c0.3,1,0.8,1.9,1.6,2.6c0.7,0.8,1.5,1.4,2.5,1.9   s2.1,0.7,3.2,0.7s2.3-0.2,3.3-0.6c1-0.4,1.9-1,2.6-1.9l5.9,7.4c-1.5,1.4-3.3,2.4-5.2,3c-2.2,0.7-4.5,1.1-6.8,1.2   c-2.5,0-4.9-0.4-7.3-1.2c-2.2-0.7-4.2-1.9-5.9-3.5c-3.6-3.3-5.5-8-5.4-12.9c-0.1-2.5,0.4-5,1.4-7.3c0.9-2.1,2.3-4,3.9-5.5   c1.7-1.6,3.7-2.8,5.9-3.5c2.3-0.8,4.8-1.2,7.3-1.2c1.2,0,2.3,0.1,3.5,0.3c1.2,0.3,2.3,0.6,3.3,0.9c1,0.4,2.1,0.9,3,1.5   c0.9,0.5,1.6,1.2,2.3,1.9L102,149.7z M133.6,148.1c-0.5-0.2-1-0.3-1.5-0.3h-1.3c-1.2,0-2.5,0.2-3.6,0.7c-0.9,0.5-1.7,1.1-2.3,1.9   c-0.6,0.7-1,1.6-1.3,2.5c-0.3,0.7-0.4,1.5-0.4,2.3V172h-10.9v-32.9h10.4v4.8h0.1c0.8-1.7,2.1-3.1,3.6-4.1c1.6-1,3.5-1.6,5.4-1.6   h1.3c0.4,0,0.7,0.1,1,0.1L133.6,148.1z M159.1,176.9c-0.7,1.7-1.4,3.2-2.2,4.6c-0.8,1.3-1.8,2.5-2.9,3.5c-1.2,1-2.5,1.7-3.9,2.2   c-1.7,0.5-3.6,0.7-5.4,0.7c-1.1,0-2.1,0-3.2-0.1c-0.9-0.1-1.9-0.3-2.8-0.6l1.2-9.1l1.7,0.4c0.6,0.1,1.2,0.2,1.7,0.1   c1.3,0.1,2.6-0.3,3.6-1.2c0.9-0.9,1.5-2.1,1.9-3.3l1-2.7L136,139.1h12l7.4,21.2h0.1l6.5-21.2h11.4L159.1,176.9z M213.4,155.5   c0,2.3-0.3,4.5-1,6.7c-0.7,2-1.7,4-3,5.7c-1.4,1.6-3.1,2.9-4.9,3.9c-2.1,1-4.4,1.5-6.7,1.5c-2,0-4-0.4-5.8-1.2   c-1.7-0.7-3.1-1.9-4.2-3.3h-0.1v19.6h-10.9v-48.7h10.3v4.1h0.1c1.2-1.4,2.6-2.6,4.2-3.4c2-1,4.2-1.5,6.4-1.5c2.3,0,4.5,0.5,6.6,1.5   c1.9,0.9,3.6,2.1,4.9,3.7c1.3,1.7,2.3,3.5,3,5.5C213,151.3,213.4,153.4,213.4,155.5L213.4,155.5z M202.8,155.5c0-1-0.1-2.1-0.4-3   c-0.3-1-0.8-1.8-1.5-2.6s-1.5-1.5-2.5-1.9c-2.1-1-4.5-1-6.7,0c-0.9,0.5-1.8,1.1-2.5,1.9c-0.7,0.8-1.2,1.7-1.6,2.8   c-0.8,2-0.8,4.1,0,6.1c0.4,1,0.9,1.9,1.6,2.8c0.7,0.8,1.5,1.4,2.5,1.9s2.2,0.7,3.3,0.7c1.2,0,2.3-0.2,3.3-0.7   c0.9-0.5,1.8-1.1,2.5-1.9c0.7-0.8,1.1-1.8,1.5-2.8C202.6,157.6,202.8,156.6,202.8,155.5L202.8,155.5z M230.6,147.2v12.6   c-0.1,1.2,0.2,2.4,0.9,3.5c0.8,0.9,2,1.3,3.2,1.2c0.6,0,1.2,0,1.7-0.1s1-0.3,1.4-0.4l0.1,8c-0.7,0.3-1.7,0.4-2.9,0.7   c-1.2,0.2-2.3,0.3-3.5,0.3c-1.9,0.1-3.7-0.2-5.5-0.9c-1.4-0.5-2.6-1.3-3.6-2.3c-0.9-1.1-1.6-2.4-1.9-3.8c-0.4-1.6-0.5-3.2-0.6-4.8   v-14h-5.2v-8.1h5.2v-8.7h10.6v8.7h7.7v8.1H230.6z"/>
	<g>
		<path class="st1" d="M211.2,64.5l-13.7,0l-0.1-7.1c0.2-5.7-4.3-10.5-10-10.7c-5.7-0.2-10.5,4.3-10.7,10c0,0.2,0,0.4,0,0.8l0.1,7.1    l-13.7,0l-0.1-7.1c-0.4-13.3,10-24.4,23.2-24.9c13.3-0.4,24.4,10,24.9,23.2c0,0.5,0,1,0,1.5L211.2,64.5z"/>
		<path class="st0" d="M216.8,64.5l-59.4,0.1c-2.5,0-4.6,2-4.6,4.5c0,0.1,0,0.1,0,0.2l0.1,43.9c0,2.5,2,4.6,4.5,4.6l0.1,0l59.4-0.1    c2.5,0,4.6-2,4.6-4.5l0-0.1l-0.1-43.9C221.4,66.6,219.4,64.5,216.8,64.5z M190.1,93.4l0,5.9c0,1.7-1.3,3-3.1,3c-1.7,0-3-1.3-3-3.1    l0-5.9c-1.9-1.1-3.1-3.1-3-5.4c0-3.4,2.8-6.1,6-6.1c3.3,0,6.1,2.8,6.1,6C193.2,90.2,192.1,92.3,190.1,93.4z"/>
		<path class="st1" d="M151.3,58l-14.3,0.1c-2.3,0-4.2-1.8-4.2-4.2c0-2.3,1.8-4.2,4.2-4.2l14.3-0.1c2.3,0,4.2,1.8,4.2,4.2    C155.5,56.1,153.6,58.1,151.3,58z"/>
		<path class="st1" d="M161.4,35.4c-1,0-1.9-0.4-2.6-1L147.4,25c-1.8-1.4-2.1-4.2-0.6-5.9c1.4-1.8,4.2-2.1,5.9-0.6l11.3,9.3    c1.7,1.5,2,4.1,0.6,5.9C163.8,34.8,162.7,35.4,161.4,35.4z"/>
		<path class="st1" d="M187,25.5c-2.3,0-4.2-1.8-4.2-4.2l0,0l0-14.5c0-2.3,1.8-4.2,4.2-4.2c2.3,0,4.2,1.8,4.2,4.2l0,14.5    C191.2,23.6,189.3,25.5,187,25.5L187,25.5z"/>
		<path class="st1" d="M212.5,35.3c-1.2,0-2.5-0.6-3.2-1.6c-1.4-1.8-1.2-4.5,0.5-6l11.2-9.3c1.8-1.5,4.5-1.2,6,0.5    c1.5,1.8,1.2,4.5-0.5,6l-11.2,9.3C214.5,35,213.5,35.3,212.5,35.3z"/>
		<path class="st1" d="M237.1,57.9l-14.5,0c-2.3,0-4.2-1.8-4.2-4.2c0-2.3,1.8-4.2,4.2-4.2l0,0l14.5,0c2.3,0,4.2,1.8,4.2,4.2    C241.3,56.1,239.4,57.9,237.1,57.9z"/>
	</g>
</g>
</svg>