<svg xmlns="http://www.w3.org/2000/svg" viewBox="0 0 162.01 83.14"><defs><style>.b7038167-bf4e-4f58-ba28-4998cd9c7db0{fill:#5e8cda;}.e8851544-9c87-4296-a1f0-d3561dcf5618{fill:#093071;}.f08a934a-45da-423f-b9c1-85e1d1f79e95{fill:#fff;}.a8ea1df6-6f33-4901-861b-6e7a4eaa2766{fill:#f5cd21;}.aa90dcbf-cf04-48bf-bf6b-c6e175cde597{fill:#fddd75;}</style></defs><g id="bc07e70a-268d-477a-83b4-3cf654901a12" data-name="Layer 2"><g id="bf208a14-a1bc-49a6-8251-c297453c99a2" data-name="Layer 2"><path class="b7038167-bf4e-4f58-ba28-4998cd9c7db0" d="M100.32,24.8,88.56,13.08l-5,6.34L89,24.8a1.29,1.29,0,0,1,0,1.82l-1.57,1.57s1.07,1.57,1.11,1.67a1.89,1.89,0,0,1-.4,2.14L75.84,41.41v9.66l24.48-24.45A1.29,1.29,0,0,0,100.32,24.8Z"/><path class="e8851544-9c87-4296-a1f0-d3561dcf5618" d="M73.06,26.26a1.28,1.28,0,0,1,0-1.81l1.56-1.57-1.07-1.53a1.69,1.69,0,0,1,.36-2.28L86.17,9.66V0h0L61.69,24.48a1.29,1.29,0,0,0,0,1.82L73.45,38l5-6.34Z"/><polygon class="f08a934a-45da-423f-b9c1-85e1d1f79e95" points="81.22 34.03 81.22 34.03 75.55 39.7 81.22 34.03"/><path class="b7038167-bf4e-4f58-ba28-4998cd9c7db0" d="M92.37,5.92a.42.42,0,0,1,.39.25c.15.24,0,.53-.21.74L81.79,20.56a.77.77,0,0,0,0,.79s5.81,8.41,6,8.69a1.4,1.4,0,0,1-.29,1.64L70.17,44.94a1,1,0,0,1-.57.25.49.49,0,0,1-.39-.25c-.15-.25,0-.54.21-.75L80.25,30.54a.76.76,0,0,0,0-.78l-6-8.63a1.27,1.27,0,0,1,.25-1.71L91.84,6.17a.63.63,0,0,1,.53-.25m0-.25a1.11,1.11,0,0,0-.68.28L74.41,19.21a1.53,1.53,0,0,0-.32,2l6,8.62a.58.58,0,0,1,0,.54L69.28,44.05A1,1,0,0,0,69,45a.65.65,0,0,0,.57.36,1.13,1.13,0,0,0,.71-.29L87.6,31.82a1.63,1.63,0,0,0,.32-1.92c-.22-.29-6-8.7-6-8.7a.7.7,0,0,1,0-.53L92.69,7a.94.94,0,0,0,.25-1,.66.66,0,0,0-.57-.39Z"/><path class="a8ea1df6-6f33-4901-861b-6e7a4eaa2766" d="M87.35,30c.14.22.25,1-.07,1.28L70,44.58a1,1,0,0,1-.28.18c-.08,0,0-.11.14-.32L80.58,30.83a1.15,1.15,0,0,0,0-1.29l-6-8.62S87.2,29.83,87.35,30Z"/><path class="aa90dcbf-cf04-48bf-bf6b-c6e175cde597" d="M87.35,30l-5.92-8.48a1.19,1.19,0,0,1,0-1.28L92.23,6.63c.14-.22.21-.32.14-.32a.49.49,0,0,0-.28.18L74.8,19.74a.84.84,0,0,0-.18,1.14Z"/><path class="e8851544-9c87-4296-a1f0-d3561dcf5618" d="M5.2,56.45V80.29a.43.43,0,0,0,.4.43,25.83,25.83,0,0,0,4.13,0c1.21-.11,2.67-.25,4.45-.53a6,6,0,0,0-.1,1.17,8.84,8.84,0,0,0,.1,1.28H0V56.42l1.07.14a4.63,4.63,0,0,0,1.67,0H4Zm17,1.32a4,4,0,0,1-1.64,0H19.28l-1.07-.14V82.68h4.95V57.63C22.91,57.66,22.59,57.7,22.2,57.77Zm4.92-.14a9.45,9.45,0,0,1,.07,1.07,10.68,10.68,0,0,1-.07,1.21h.82a50.76,50.76,0,0,1,5.81-.47.41.41,0,0,1,.43.43V82.68H39V59.87a.41.41,0,0,1,.42-.43c1.11,0,2.68.11,4.67.29.5.07,1,.11,1.61.14a3.28,3.28,0,0,1,0-1.17,2.75,2.75,0,0,1,0-1.07Zm22.52,0V82.68H63.18a8.07,8.07,0,0,1-.1-1.21,9.87,9.87,0,0,1,.07-1.11c-.93.15-2,.25-3.07.32-1.28.11-3,.15-5.23.15a.41.41,0,0,1-.43-.43V70.71a.41.41,0,0,1,.43-.43h3.63c1.21.07,2.17.14,3.14.21l.71,0c0-.11,0-.22-.07-.32V68.46s0-.11,0-.14,0-.07,0-.11a34,34,0,0,1-3.85.22H54.85a.41.41,0,0,1-.43-.43V59.8a.41.41,0,0,1,.43-.43,66.86,66.86,0,0,1,8.33.54A4.67,4.67,0,0,1,63,58.77a4.78,4.78,0,0,1,.14-1.21l-13.54.07ZM83.57,75c-.11-3.1-2.5-5.84-7.09-8.16-3.42-1.74-5.06-3.46-5.06-5.2,0-2.82,1.64-4.38,4.77-4.49,2.14,0,3.78,1.14,4.88,3.38.11-.39.29-.89.5-1.53s.47-1.25.64-1.71a12.16,12.16,0,0,0-5.88-1.6c-5.66.28-8.55,2.92-8.73,8,0,3.42,2.18,6.16,6.45,8.16,3.57,1.64,5.38,3.49,5.38,5.52-.21,2.89-1.92,4.39-5.09,4.49-3.14-.1-5.06-1.56-5.81-4.34h-.07a30.25,30.25,0,0,1-.93,4.45,18.45,18.45,0,0,0,5.85,1.21C79.68,83.18,83.18,80.19,83.57,75Zm8.27-3.6a.62.62,0,0,0-.29.11.44.44,0,0,0-.14.29v10.9h-5V57.63h9c5.13,0,7.66,2,7.77,6a7.06,7.06,0,0,1-1.78,5.21c-1.68,1.71-4.64,2.6-8.77,2.6A4.91,4.91,0,0,0,91.84,71.38Zm0-1.24a3.89,3.89,0,0,0,.61,0,7,7,0,0,0,2.1-.36c2.24-.64,3.53-2.49,3.71-5.48-.22-3.39-1.54-5.28-4-5.6H91.84a.43.43,0,0,0-.43.43V69.74A.5.5,0,0,0,91.8,70.14Zm31.33-12.51V82.68H136.7a8.38,8.38,0,0,1-.1-1.21,5.45,5.45,0,0,1,.1-1.11c-.92.15-2,.25-3.06.32-1.28.11-3,.15-5.24.15a.44.44,0,0,1-.43-.43V70.71a.43.43,0,0,1,.43-.43h4c1.49.11,2.88.18,4.13.25,0-.11,0-.22-.07-.36V68.43a.21.21,0,0,1,0-.15.78.78,0,0,0,0-.14,37.29,37.29,0,0,1-4.1.21h-4a.42.42,0,0,1-.43-.42v-8.2a.44.44,0,0,1,.43-.43,68,68,0,0,1,8.37.54,5,5,0,0,1,0-2.36l-13.68.15Zm25.3,25.05h-8.27V57.63h10.62c7.16.5,10.83,4.34,11.23,11.76C161.51,77.73,157,82.22,148.43,82.68Zm8-13.26c0-6.87-3.1-10.37-9.2-10.37H145.4a.44.44,0,0,0-.43.43V80.86a.43.43,0,0,0,.43.43H147c3.1,0,5.49-1,7.05-3S156.45,73.31,156.45,69.42ZM106,57.63V82.68h13.58a8.38,8.38,0,0,1-.1-1.21,5.45,5.45,0,0,1,.1-1.11c-.92.15-2,.25-3.06.32-1.29.11-3,.15-5.24.15a.44.44,0,0,1-.43-.43V70.71a.43.43,0,0,1,.43-.43h4c1.49.11,2.88.18,4.13.25a2.88,2.88,0,0,1-.07-.36V68.43a.27.27,0,0,1,0-.15s0-.07,0-.14a37.29,37.29,0,0,1-4.1.21h-4a.42.42,0,0,1-.42-.42v-8.2a.44.44,0,0,1,.42-.43,68,68,0,0,1,8.38.54,5,5,0,0,1,0-2.36L106,57.63Z"/></g></g></svg>